<?xml version="1.0" encoding="utf-8"?>
<!-- Generator: Adobe Illustrator 19.1.0, SVG Export Plug-In . SVG Version: 6.00 Build 0)  -->
<!DOCTYPE svg PUBLIC "-//W3C//DTD SVG 1.1//EN" "http://www.w3.org/Graphics/SVG/1.1/DTD/svg11.dtd">
<svg version="1.1" xmlns="http://www.w3.org/2000/svg" xmlns:xlink="http://www.w3.org/1999/xlink" x="0px" y="0px"
	 viewBox="0 0 305.6 17" style="enable-background:new 0 0 305.6 17;" xml:space="preserve">
<style type="text/css">
	.st0{fill:url(#SVGID_11_);}
	.st1{fill:url(#SVGID_12_);}
	.st2{fill:url(#SVGID_13_);}
	.st3{fill:url(#SVGID_14_);}
	.st4{fill:url(#SVGID_15_);}
	.st5{fill:url(#SVGID_16_);}
	.st6{fill:url(#SVGID_17_);}
	.st7{fill:url(#SVGID_18_);}
	.st8{fill:url(#SVGID_19_);}
	.st9{fill:url(#SVGID_20_);}
	.st10{fill:url(#SVGID_21_);}
	.st11{fill:#147FD5;}
	.st12{fill:#F35B5B;}
	.st13{fill:#EBF1F5;}
	.st14{fill:#A5B4C3;}
	.st15{fill:none;stroke:#A5B4C3;stroke-miterlimit:10;}
	.st16{fill:#0D63A8;}
	.st17{fill:#EA3E3E;}
	.st18{fill:#4ACA66;}
	.st19{fill:#364350;}
	.st20{fill:none;stroke:#EBF1F5;stroke-miterlimit:10;}
	.st21{fill:none;stroke:#A5B4C3;stroke-width:23;stroke-miterlimit:10;}
	.st22{fill:none;stroke:#A5B4C3;stroke-width:22.9997;stroke-miterlimit:10;}
	.st23{fill:none;stroke:#A5B4C3;stroke-width:23.0007;stroke-miterlimit:10;}
	.st24{fill:url(#SVGID_26_);}
	.st25{fill:url(#SVGID_27_);}
	.st26{fill:#FFFFFF;}
	.st27{fill:none;stroke:#0D63A8;stroke-miterlimit:10;}
	.st28{fill:url(#SVGID_28_);}
	.st29{fill:url(#SVGID_29_);}
	.st30{fill:url(#SVGID_30_);}
	.st31{fill:url(#SVGID_31_);}
	.st32{opacity:0.4;fill:#364350;}
	.st33{fill:url(#SVGID_32_);}
	.st34{fill:url(#SVGID_33_);}
	.st35{opacity:0.7;}
	.st36{fill:url(#SVGID_34_);}
	.st37{fill:url(#SVGID_35_);}
	.st38{opacity:0.95;fill:#5D5D5D;}
	.st39{fill:#5D5D5D;}
	.st40{opacity:0.5;fill:#364350;}
	.st41{fill:none;stroke:#EEF1F5;stroke-miterlimit:10;}
</style>
<g id="Linked_Images">
</g>
<g id="Main_Layer">
	<g>
		<path class="st26" d="M0,8.8c0-5,3-8.3,7.4-8.3c2.2,0,3.8,1,4.5,2.8l0.7-2.5h1.9v5.9h-2.8C11.3,3.8,10,2.5,7.8,2.5
			c-2.9,0-4.3,2-4.3,5.8v0.8C3.5,12.9,5,15,7.9,15c2.7,0,4.3-1.3,4.5-4.2l2.2,0.2c-0.1,3.1-2.2,6-6.8,6C3,17,0,14,0,8.8z"/>
		<path class="st26" d="M19.5,6.7c0.3,0.3,0.5,0.8,0.5,1.3c0,1.1-0.8,1.8-1.9,1.8c-1.2,0-2-0.7-2-1.9c0-2.3,2.5-3.1,5.5-3.1
			c3.6,0,5.2,1.1,5.2,4v5.6c0,0.5,0.1,0.6,0.4,0.6h1v1.8h-3.9c-0.4-0.6-0.6-1.2-0.7-2C22.9,16,21.2,17,19.2,17
			c-2.2,0-3.5-1.3-3.5-3.1c0-2.9,3-3.8,7.8-4.6V8.7c0-1.6-0.8-2.2-2.5-2.2C20.4,6.5,19.8,6.6,19.5,6.7z M23.5,11.7v-0.9
			c-2.9,0.4-4.6,1-4.6,2.6c0,1,0.6,1.6,1.7,1.6C22.3,15,23.5,13.7,23.5,11.7z"/>
		<path class="st26" d="M33.5,7.3c0.6-1.9,1.8-2.6,3.2-2.6c1.7,0,2.8,1.1,2.8,2.8c0,1.5-0.9,2.5-2.3,2.5c-0.9,0-1.6-0.7-1.6-1.6
			c0-0.6,0.4-1.3,1.2-1.5c-0.2-0.1-0.4-0.2-0.8-0.2c-1.6,0-2.4,1.5-2.4,3.9v3.7c0,0.6,0.1,0.6,0.4,0.6H35v1.8h-6.2v-1.8h1.1
			c0.3,0,0.4-0.1,0.4-0.6V7.5c0-0.6-0.1-0.7-0.4-0.7h-1.1V5h1.9c1.2,0,2.3-0.1,2.8-0.2V7.3z"/>
		<path class="st26" d="M39.8,10.8c0-3.6,2.5-6.1,6.3-6.1c3.7,0,6.1,2.5,6.1,6.1c0,3.7-2.5,6.2-6.2,6.2C42.2,17,39.8,14.5,39.8,10.8
			z M49,11v-0.3c0-2.8-0.9-4.1-3-4.1c-2,0-3,1.3-3,4.1V11c0,2.8,0.9,4.1,3,4.1S49,13.8,49,11z"/>
		<path class="st26" d="M52.3,14.9h1.1c0.2,0,0.4-0.1,0.4-0.6v-11c0-0.6-0.1-0.7-0.4-0.7h-1.1V0.8h2c1.2,0,2.3-0.1,2.8-0.2v13.8
			c0,0.6,0.1,0.6,0.4,0.6h1v1.8h-6.1V14.9z"/>
		<path class="st26" d="M59.3,14.9h1.1c0.3,0,0.4-0.1,0.4-0.6V7.8c0-0.7-0.1-1-0.5-1h-0.9V5h1.9c1.2,0,2.3-0.1,2.8-0.2v9.5
			c0,0.5,0.1,0.6,0.4,0.6h1v1.8h-6.1V14.9z M60.4,2c0-1.1,0.8-2,2-2c1.2,0,2,0.9,2,2s-0.8,2-2,2C61.2,3.9,60.4,3,60.4,2z"/>
		<path class="st26" d="M70.9,7.1c0.7-1.6,2.1-2.4,4-2.4c2.5,0,3.8,1.4,3.8,4.4v5.2c0,0.6,0.1,0.6,0.4,0.6h1.1v1.8h-6v-1.8H75
			c0.3,0,0.4-0.1,0.4-0.6V9.1c0-1.6-0.6-2.3-1.9-2.3c-1.6,0-2.5,1.2-2.5,3.8v3.6c0,0.6,0.1,0.6,0.4,0.6h0.9v1.8h-6v-1.8h1.1
			c0.3,0,0.4-0.1,0.4-0.6V7.5c0-0.6-0.1-0.7-0.4-0.7h-1.1V5h1.9c1.2,0,2.3-0.1,2.8-0.2V7.1z"/>
		<path class="st26" d="M84.6,6.7c0.3,0.3,0.5,0.8,0.5,1.3c0,1.1-0.8,1.8-1.9,1.8c-1.2,0-2-0.7-2-1.9c0-2.3,2.5-3.1,5.5-3.1
			c3.6,0,5.2,1.1,5.2,4v5.6c0,0.5,0.1,0.6,0.4,0.6h1v1.8h-3.9c-0.4-0.6-0.6-1.2-0.7-2C88.1,16,86.4,17,84.4,17
			c-2.2,0-3.5-1.3-3.5-3.1c0-2.9,3-3.8,7.8-4.6V8.7c0-1.6-0.8-2.2-2.5-2.2C85.5,6.5,85,6.6,84.6,6.7z M88.7,11.7v-0.9
			c-2.9,0.4-4.6,1-4.6,2.6c0,1,0.6,1.6,1.7,1.6C87.5,15,88.6,13.7,88.7,11.7z"/>
		<path class="st26" d="M100,15.6v-3.7h2.6v2.7c1,0.3,2.1,0.5,3.2,0.5c1.6,0,2.9-0.7,2.9-2.2c0-1.7-1.2-2-3.9-2.6
			c-3-0.7-4.9-1.8-4.9-4.6c0-3.2,2.4-5.1,6.4-5.1c1.8,0,3.4,0.4,5.1,1v4h-2.6V2.7c-0.7-0.2-1.6-0.3-2.4-0.3c-2.1,0-3.2,0.8-3.2,2.3
			c0,1.5,1,1.9,3.6,2.5c2.8,0.6,5.2,1.5,5.2,4.6c0,3.1-2.3,5.2-6.3,5.2C103.7,17,101.7,16.6,100,15.6z"/>
		<path class="st26" d="M114.1,13.4V6.8h-1.6V5.2c0,0,1-0.1,0.9-0.1c0.8-0.1,1.3-0.5,1.4-1.3l0.2-2.1h2.2V5h2.3v1.8h-2.4v6.5
			c0,1.3,0.5,1.7,1.5,1.7c0.5,0,0.8-0.1,1.1-0.2v1.8c-0.5,0.1-1.2,0.3-2.1,0.3C115.1,17,114.1,16,114.1,13.4z"/>
		<path class="st26" d="M129.5,16.9v-2.1c-0.7,1.5-2.1,2.2-3.8,2.2c-2.4,0-3.8-1.3-3.8-4.3V7.4c0-0.6-0.1-0.6-0.4-0.6h-1.1V5h4.7
			v7.7c0,1.7,0.7,2.3,1.9,2.3c1.6,0,2.5-1.2,2.5-3.5v-4c0-0.6-0.1-0.6-0.4-0.6h-1.2V5h4.8v9.2c0,0.6,0.1,0.7,0.4,0.7h1.1v1.8h-2
			C131.1,16.7,130.1,16.8,129.5,16.9z"/>
		<path class="st26" d="M134.5,10.8c0-3.7,2.1-6.1,5.2-6.1c2,0,3.3,0.8,4,2.4V3.3c0-0.6-0.1-0.7-0.4-0.7h-1.1V0.8h2
			c1.2,0,2.3-0.1,2.8-0.2v13.8c0,0.6,0.1,0.6,0.4,0.6h1v1.8H144c0-0.3-0.1-1.3-0.2-2.3c-0.7,1.6-2,2.6-4.1,2.6
			C136.6,17,134.5,14.6,134.5,10.8z M143.7,11v-0.4c0-2.6-1.2-3.9-2.9-3.9c-1.8,0-2.9,1.3-2.9,3.9V11c0,2.6,1.2,3.9,2.9,3.9
			C142.5,15,143.7,13.7,143.7,11z"/>
		<path class="st26" d="M152.1,11.5c0.1,2.2,1.2,3.6,3.3,3.6c1.7,0,2.6-0.8,3.2-2.3l1.8,0.8c-0.6,1.9-2.2,3.4-5.3,3.4
			c-4.2,0-6.4-2.6-6.4-6.2c0-3.6,2.5-6.1,6.1-6.1c3.7,0,5.7,2.3,5.7,6.2v0.6H152.1z M152.1,9.8h5.3c0-2.4-0.8-3.3-2.5-3.3
			C153.2,6.6,152.2,7.5,152.1,9.8z"/>
		<path class="st26" d="M166.1,7.1c0.7-1.6,2.1-2.4,4-2.4c2.5,0,3.8,1.4,3.8,4.4v5.2c0,0.6,0.1,0.6,0.4,0.6h1.1v1.8h-6v-1.8h0.9
			c0.3,0,0.4-0.1,0.4-0.6V9.1c0-1.6-0.6-2.3-1.9-2.3c-1.6,0-2.5,1.2-2.5,3.8v3.6c0,0.6,0.1,0.6,0.4,0.6h0.9v1.8h-6v-1.8h1.1
			c0.3,0,0.4-0.1,0.4-0.6V7.5c0-0.6-0.1-0.7-0.4-0.7h-1.1V5h1.9c1.2,0,2.3-0.1,2.8-0.2V7.1z"/>
		<path class="st26" d="M176.4,13.4V6.8h-1.6V5.2c0,0,1-0.1,0.9-0.1c0.8-0.1,1.3-0.5,1.4-1.3l0.2-2.1h2.2V5h2.3v1.8h-2.4v6.5
			c0,1.3,0.5,1.7,1.5,1.7c0.5,0,0.8-0.1,1.1-0.2v1.8c-0.5,0.1-1.2,0.3-2.1,0.3C177.5,17,176.4,16,176.4,13.4z"/>
		<path class="st26" d="M183.1,12.9h2.4v2.2c0.5,0.1,1.2,0.2,2.1,0.2c1.4,0,2.3-0.5,2.3-1.6c0-1.2-1.2-1.4-2.8-1.7
			c-2.1-0.4-4.2-1-4.2-3.5c0-2.3,1.8-3.8,5.2-3.8c1.7,0,3.5,0.5,4.4,0.9v3.1h-2.4v-2c-0.3-0.1-1.2-0.3-1.8-0.3
			c-1.4,0-2.3,0.6-2.3,1.5c0,1.2,1.2,1.3,2.7,1.6c2.1,0.4,4.2,1,4.2,3.6c0,2.4-1.9,3.9-5.3,3.9c-1.8,0-3.5-0.5-4.6-1V12.9z"/>
		<path class="st26" d="M199.4,5h1.6V4.2c0-2.8,1.1-3.9,3.7-3.9c0.9,0,1.7,0.2,2,0.4v1.8c-0.2-0.1-0.7-0.2-1-0.2
			c-1.3,0-1.7,0.5-1.6,2.4V5h2.1v1.8h-2.1v7.5c0,0.6,0.1,0.6,0.4,0.6h1.2v1.8h-6.3v-1.8h1.1c0.3,0,0.4-0.1,0.4-0.6V6.8h-1.6V5z"/>
		<path class="st26" d="M206.5,10.8c0-3.6,2.5-6.1,6.3-6.1c3.7,0,6.1,2.5,6.1,6.1c0,3.7-2.5,6.2-6.2,6.2
			C209,17,206.5,14.5,206.5,10.8z M215.7,11v-0.3c0-2.8-0.9-4.1-3-4.1c-2,0-3,1.3-3,4.1V11c0,2.8,0.9,4.1,3,4.1S215.7,13.8,215.7,11
			z"/>
		<path class="st26" d="M224.2,7.3c0.6-1.9,1.8-2.6,3.2-2.6c1.7,0,2.8,1.1,2.8,2.8c0,1.5-0.9,2.5-2.3,2.5c-0.9,0-1.6-0.7-1.6-1.6
			c0-0.6,0.4-1.3,1.2-1.5c-0.2-0.1-0.4-0.2-0.8-0.2c-1.6,0-2.4,1.5-2.4,3.9v3.7c0,0.6,0.1,0.6,0.4,0.6h1.1v1.8h-6.2v-1.8h1.1
			c0.3,0,0.4-0.1,0.4-0.6V7.5c0-0.6-0.1-0.7-0.4-0.7h-1.1V5h1.9c1.2,0,2.3-0.1,2.8-0.2V7.3z"/>
		<path class="st26" d="M243.3,16.7h-7v-1.8h1.2c0.3,0,0.5-0.2,0.5-0.7v-11c0-0.5-0.1-0.7-0.5-0.7h-1.2V0.8h7c4.3,0,6.1,1.2,6.1,4
			c0,1.9-1,3.1-3.2,3.6c2.6,0.4,3.8,1.7,3.8,4C250.1,15.4,248,16.7,243.3,16.7z M243.1,7.8c1.9,0,2.9-0.8,2.9-2.6
			c0-1.9-0.7-2.6-2.7-2.6h-2v5.2H243.1z M241.3,14.9h2.2c2.3,0,3.1-0.7,3.1-2.7c0-2.1-0.9-2.8-3-2.8h-2.3V14.9z"/>
		<path class="st26" d="M254.4,11.5c0.1,2.2,1.2,3.6,3.3,3.6c1.7,0,2.6-0.8,3.2-2.3l1.8,0.8c-0.6,1.9-2.2,3.4-5.3,3.4
			c-4.2,0-6.4-2.6-6.4-6.2c0-3.6,2.5-6.1,6.1-6.1c3.7,0,5.7,2.3,5.7,6.2v0.6H254.4z M254.3,9.8h5.3c0-2.4-0.8-3.3-2.5-3.3
			S254.5,7.5,254.3,9.8z"/>
		<path class="st26" d="M268,7.3c0.6-1.9,1.8-2.6,3.2-2.6c1.7,0,2.8,1.1,2.8,2.8c0,1.5-0.9,2.5-2.3,2.5c-0.9,0-1.6-0.7-1.6-1.6
			c0-0.6,0.4-1.3,1.2-1.5c-0.2-0.1-0.4-0.2-0.8-0.2c-1.6,0-2.4,1.5-2.4,3.9v3.7c0,0.6,0.1,0.6,0.4,0.6h1.1v1.8h-6.2v-1.8h1.1
			c0.3,0,0.4-0.1,0.4-0.6V7.5c0-0.6-0.1-0.7-0.4-0.7h-1.1V5h1.9c1.2,0,2.3-0.1,2.8-0.2V7.3z"/>
		<path class="st26" d="M278.2,7.1c0.7-1.6,2.1-2.4,4-2.4c2.5,0,3.8,1.4,3.8,4.4v5.2c0,0.6,0.1,0.6,0.4,0.6h1.1v1.8h-6v-1.8h0.9
			c0.3,0,0.4-0.1,0.4-0.6V9.1c0-1.6-0.6-2.3-1.9-2.3c-1.6,0-2.5,1.2-2.5,3.8v3.6c0,0.6,0.1,0.6,0.4,0.6h0.9v1.8h-6v-1.8h1.1
			c0.3,0,0.4-0.1,0.4-0.6V7.5c0-0.6-0.1-0.7-0.4-0.7h-1.1V5h1.9c1.2,0,2.3-0.1,2.8-0.2V7.1z"/>
		<path class="st26" d="M287.7,14.9h1.1c0.3,0,0.4-0.1,0.4-0.6V7.8c0-0.7-0.1-1-0.5-1h-0.9V5h1.9c1.2,0,2.3-0.1,2.8-0.2v9.5
			c0,0.5,0.1,0.6,0.4,0.6h1v1.8h-6.1V14.9z M288.8,2c0-1.1,0.8-2,2-2c1.2,0,2,0.9,2,2s-0.8,2-2,2C289.6,3.9,288.8,3,288.8,2z"/>
		<path class="st26" d="M297.1,11.5c0.1,2.2,1.2,3.6,3.3,3.6c1.7,0,2.6-0.8,3.2-2.3l1.8,0.8c-0.6,1.9-2.2,3.4-5.3,3.4
			c-4.2,0-6.4-2.6-6.4-6.2c0-3.6,2.5-6.1,6.1-6.1c3.7,0,5.7,2.3,5.7,6.2v0.6H297.1z M297,9.8h5.3c0-2.4-0.8-3.3-2.5-3.3
			S297.2,7.5,297,9.8z"/>
	</g>
</g>
</svg>
