<?xml version="1.0" encoding="utf-8"?>
<!-- Generator: Adobe Illustrator 19.1.0, SVG Export Plug-In . SVG Version: 6.00 Build 0)  -->
<!DOCTYPE svg PUBLIC "-//W3C//DTD SVG 1.1//EN" "http://www.w3.org/Graphics/SVG/1.1/DTD/svg11.dtd">
<svg version="1.1" xmlns="http://www.w3.org/2000/svg" xmlns:xlink="http://www.w3.org/1999/xlink" x="0px" y="0px"
	 viewBox="0 0 24 24" style="enable-background:new 0 0 24 24;" xml:space="preserve">
<style type="text/css">
	.st0{fill:url(#SVGID_11_);}
	.st1{fill:url(#SVGID_12_);}
	.st2{fill:url(#SVGID_13_);}
	.st3{fill:url(#SVGID_14_);}
	.st4{fill:url(#SVGID_15_);}
	.st5{fill:url(#SVGID_16_);}
	.st6{fill:url(#SVGID_17_);}
	.st7{fill:url(#SVGID_18_);}
	.st8{fill:url(#SVGID_19_);}
	.st9{fill:url(#SVGID_20_);}
	.st10{fill:url(#SVGID_21_);}
	.st11{fill:#147FD5;}
	.st12{fill:#F35B5B;}
	.st13{fill:#EBF1F5;}
	.st14{fill:#A5B4C3;}
	.st15{fill:none;stroke:#A5B4C3;stroke-miterlimit:10;}
	.st16{fill:#0D63A8;}
	.st17{fill:#EA3E3E;}
	.st18{fill:#4ACA66;}
	.st19{fill:#364350;}
	.st20{fill:none;stroke:#EBF1F5;stroke-miterlimit:10;}
	.st21{fill:none;stroke:#A5B4C3;stroke-width:23;stroke-miterlimit:10;}
	.st22{fill:none;stroke:#A5B4C3;stroke-width:22.9997;stroke-miterlimit:10;}
	.st23{fill:none;stroke:#A5B4C3;stroke-width:23.0007;stroke-miterlimit:10;}
	.st24{fill:url(#SVGID_26_);}
	.st25{fill:url(#SVGID_27_);}
	.st26{fill:#FFFFFF;}
	.st27{fill:none;stroke:#0D63A8;stroke-miterlimit:10;}
	.st28{fill:url(#SVGID_28_);}
	.st29{fill:url(#SVGID_29_);}
	.st30{fill:url(#SVGID_30_);}
	.st31{fill:url(#SVGID_31_);}
	.st32{opacity:0.4;fill:#364350;}
	.st33{fill:url(#SVGID_32_);}
	.st34{fill:url(#SVGID_33_);}
	.st35{opacity:0.7;}
	.st36{fill:url(#SVGID_34_);}
	.st37{fill:url(#SVGID_35_);}
	.st38{opacity:0.95;fill:#5D5D5D;}
	.st39{fill:#5D5D5D;}
	.st40{opacity:0.5;fill:#364350;}
	.st41{fill:none;stroke:#EEF1F5;stroke-miterlimit:10;}
</style>
<g id="Linked_Images">
</g>
<g id="Main_Layer">
	<g>
		<circle class="st26" cx="12" cy="12" r="12"/>
		<g>
			<path class="st11" d="M15.8,5.5C15.8,5.5,15.8,5.5,15.8,5.5v2.2c0,0.1,0,0.1-0.1,0.1h-1.4c-0.2,0-0.4,0-0.6,0.1
				c-0.2,0.1-0.3,0.2-0.4,0.3c-0.1,0.2-0.2,0.4-0.2,0.7c0,0.6,0,1.2,0,1.7c0,0.1,0,0.1,0.1,0.1h1.5c0.3,0,0.6,0,0.9,0
				c0.1,0,0.1,0,0.1,0.1c0,0,0,0.1,0,0.1c0,0.2,0,0.3-0.1,0.5c0,0.3-0.1,0.5-0.1,0.8c0,0.2,0,0.3-0.1,0.5c0,0.2,0,0.3-0.1,0.5
				c0,0.1,0,0.1-0.1,0.1h-2c-0.1,0-0.1,0-0.1,0.1v6.5c0,0,0,0,0,0h-2.7v-6.5c0-0.1,0-0.1-0.1-0.1h-2c-0.1,0-0.1,0-0.1-0.1v-2.4
				c0-0.1,0-0.1,0.1-0.1h2c0.1,0,0.1,0,0.1-0.1V8.7c0-0.1,0-0.3,0-0.4c0-0.3,0.1-0.6,0.2-0.9c0.1-0.2,0.2-0.5,0.3-0.7
				c0.2-0.4,0.5-0.7,0.9-0.9c0.2-0.1,0.3-0.2,0.5-0.2c0.1-0.1,0.3-0.1,0.4-0.1c0.2,0,0.4-0.1,0.6-0.1c0.3,0,0.6,0,0.9,0
				c0.2,0,0.3,0,0.5,0C15.2,5.3,15.4,5.4,15.8,5.5C15.8,5.4,15.8,5.4,15.8,5.5z"/>
		</g>
	</g>
</g>
</svg>
