<?xml version="1.0" encoding="utf-8"?>
<!-- Generator: Adobe Illustrator 19.1.0, SVG Export Plug-In . SVG Version: 6.00 Build 0)  -->
<!DOCTYPE svg PUBLIC "-//W3C//DTD SVG 1.1//EN" "http://www.w3.org/Graphics/SVG/1.1/DTD/svg11.dtd">
<svg version="1.1" xmlns="http://www.w3.org/2000/svg" xmlns:xlink="http://www.w3.org/1999/xlink" x="0px" y="0px"
	 viewBox="0 0 701.8 644.6" style="enable-background:new 0 0 701.8 644.6;" xml:space="preserve">
<style type="text/css">
	.st0{fill:#EFF3F7;}
	.st1{fill:#FFFFFF;}
	.st2{fill:url(#SVGID_1_);}
	.st3{fill:url(#SVGID_2_);}
	.st4{fill:#147FD7;}
	.st5{fill:#F55B5B;}
	.st6{fill:url(#SVGID_3_);}
	.st7{fill:url(#SVGID_4_);}
	.st8{fill:url(#SVGID_5_);}
	.st9{fill:url(#SVGID_6_);}
	.st10{fill:url(#SVGID_7_);}
	.st11{fill:url(#SVGID_8_);}
	.st12{fill:url(#SVGID_9_);}
	.st13{fill:url(#SVGID_10_);}
	.st14{fill:url(#SVGID_11_);}
	.st15{fill:url(#SVGID_12_);}
	.st16{fill:url(#SVGID_13_);}
	.st17{fill:url(#SVGID_14_);}
	.st18{fill:url(#SVGID_15_);}
	.st19{fill:url(#SVGID_16_);}
	.st20{fill:url(#SVGID_17_);}
	.st21{fill:url(#SVGID_18_);}
	.st22{fill:url(#SVGID_19_);}
	.st23{fill:url(#SVGID_20_);}
	.st24{fill:url(#SVGID_21_);}
	.st25{fill:url(#SVGID_22_);}
	.st26{fill:url(#SVGID_23_);}
	.st27{fill:url(#SVGID_24_);}
	.st28{fill:url(#SVGID_25_);}
	.st29{fill:url(#SVGID_26_);}
	.st30{fill:url(#SVGID_27_);}
	.st31{fill:url(#SVGID_28_);}
	.st32{fill:url(#SVGID_29_);}
	.st33{fill:url(#SVGID_30_);}
	.st34{fill:url(#SVGID_31_);}
	.st35{fill:url(#SVGID_32_);}
	.st36{fill:url(#SVGID_33_);}
	.st37{fill:url(#SVGID_34_);}
	.st38{fill:url(#SVGID_35_);}
	.st39{fill:url(#SVGID_36_);}
	.st40{fill:url(#SVGID_37_);}
	.st41{fill:url(#SVGID_38_);}
	.st42{fill:url(#SVGID_39_);}
	.st43{fill:url(#SVGID_40_);}
	.st44{fill:#0D63AA;}
	.st45{fill:#EC3E3E;}
	.st46{fill:#4ACC66;}
	.st47{fill:#A7B6C5;}
	.st48{fill:#364350;}
	.st49{fill:#BACAD8;}
	.st50{fill:#F05D5C;}
	.st51{fill:#EA3E3E;}
	.st52{fill:#F39143;}
	.st53{fill:#EC7F35;}
	.st54{fill:#F4E237;}
	.st55{fill:#5EBB66;}
	.st56{fill:#4BAE4D;}
	.st57{fill:#327CBF;}
	.st58{fill:#0964AA;}
	.st59{fill:#9759A3;}
	.st60{fill:#884A99;}
	.st61{fill:#F6E94B;}
	.st62{fill:#EEF2F5;}
	.st63{fill:#A6B5C4;}
	.st64{fill:#364450;}
</style>
<g id="Layer_2">
</g>
<g id="Layer_1">
	<g>
		<g>
			<g>
				<g>
					<path class="st4" d="M358.9,84.5c-2.9-5.3-6.8-7.8-10.5-10.5c-17.9-12.7-38.3-18.7-59.6-21.9c-36.1-5.5-71.2-1.2-105.2,11.9
						c-1.9,0.8-4.5,2.9-6,0.7c-1.7-2.5,1.2-4.3,2.8-5.9c25.2-24.2,55.1-40.2,88.8-48.5C333.3-5.3,396.9-4.5,458.4,21.9
						c55.2,23.8,95.1,64.2,121.9,117.8c1.8,3.6,2.9,7.5,4.3,11.3c0.4,1.2,0.3,2.5-0.7,3.4c-1.2,1-2.3,0-3.2-0.8
						c-26.1-22.1-58.4-29.5-90.3-37.2c-39.9-9.6-80.6-14-121.7-15.1c-58.8-1.5-116.9,3.1-174.1,17.2c-21.2,5.2-42,11.8-60.1,24.7
						c-4.4,3.1-8.4,6.9-12.6,10.3c-1.1,0.9-2.3,1.9-3.8,1.2c-1.6-0.8-0.9-2.5-0.7-3.8c2.3-11.6,6.3-21,18.4-27
						c28.3-14,58.1-22.7,89-28.3c42.6-7.7,85.4-12.6,128.8-11.2C355,84.5,356.3,84.5,358.9,84.5z"/>
					<path class="st4" d="M545.1,182.3c-0.3,1.3,0,2.5,1.4,3.3c1.8,0,3.2,1.4,3.2,3.2v6.1c0,1.7-1.4,3.2-3.2,3.2h-3.2V344
						c0,0.4,0,0.9,0,1.3v0.5c0,14.5,0,28.9,0,43.3v63.3c0,12.5,0,24.9,0,37.4c-13-2.7-26.3-5-39.6-6.9V209.5c0-0.9,0.4-1.8,1.1-2.3
						c0.1-0.1,0.3-0.2,0.4-0.3l1.4-0.9l0,0l0.9-0.5l3.3-2.1l0.8-0.5l0.4-0.3l0.2-0.1c0.3-0.2,0.7-0.4,1-0.7l5.5-3.5H499
						c-0.2,0-0.3,0-0.4,0c-1.6-0.2-2.7-1.6-2.7-3.1v-5.3c0.1-0.9,0.2-1.7,0.4-2.4c0.5-1,1.6-1.6,2.8-1.6h8.1c0-0.3-0.5-1.2-0.8-1.7
						c-4.1-6.1-9.4-10-15-13.5c-23.6-14.8-49.8-21.6-77.1-25c-14.4-1.8-28.9-2.9-43.5-1.9c-5.1,0.4-7.7-1.1-7.1-6.7
						c0.3-3-1.3-4.3-4.4-4.2c-6.8,0.2-13.7,0.3-20.6,0.2c-3.7-0.1-5.4,1.5-4.9,5c0.6,4.6-2,5.5-5.7,5.6c-13.7,0.6-27.4,1.3-41.1,2.2
						c-4.1,0.3-5.6-1.5-5.5-5.2c0.1-4.7-2.2-5.9-6.5-5.4c-4.8,0.6-9.6,1.1-14.5,1.4c-4,0.3-6.1,1.7-5.1,6.1c1,4.8-0.8,7-5.8,7.3
						c-9.3,0.6-18.5,2-27.5,4.2c-4.3,1-6.2-0.2-6.4-4.4c-0.3-4.7-2.9-5.7-7-4.6c-2.2,0.6-4.3,1-6.5,1.3c-4.2,0.6-6.9,2-5.1,7.1
						c1.3,3.6-0.4,5.5-4.2,6.3c-5.7,1.3-11.3,2.9-16.9,4.8c-3.6,1.1-6.3,1.4-7.5-3c-1.1-3.8-3.6-4-6.6-2.2c-2.5,1.6-7.6,1.3-5,6.8
						c1.3,2.8,1.2,4.9-2.1,6.3c-3.9,1.7-4.5-1.2-5.6-3.5c-5.9-11.9-5.5-13.6,6.5-19.3c19.9-9.4,41.1-14.5,62.5-18.3
						c96-17.1,191.5-15.8,286.5,6.6c13.8,3.2,27.3,7.3,40.2,13.2c10.6,4.9,11.1,6.6,6.4,17c-1.4,2.9-2.8,5.8-4,8.8
						c-0.1,0.3-0.3,0.7-0.6,1.1c-0.1,0.2-0.3,0.4-0.4,0.7c-0.2,0.3-0.3,0.5-0.4,0.9c-0.4,0.8-0.8,1.6-0.8,2.4
						C545.1,182.2,545.1,182.3,545.1,182.3z"/>
					<path class="st4" d="M327.9,478.5c0-6.2,0-12.5,0-18.7C327.9,466,327.9,472.2,327.9,478.5L327.9,478.5z"/>
					<path class="st4" d="M327.9,459.8c0-1.8,0-3.6,0-5.4C327.9,456.2,327.9,458,327.9,459.8z"/>
					<path class="st4" d="M373.9,414.3c0,2.3,0,5,0,8.2L373.9,414.3L373.9,414.3z"/>
					<path class="st4" d="M383.1,394.9v2.6h-2.3c-4.1,4.9-6.9,10.3-6.9,16.8v65.3c-15.1,1.3-30.4,3.3-46,5.7v-6.9
						c0-9.1,0-18.2,0-27.4c0-5.8,0-11.6-0.1-17.3c0-4.1,1.1-6.8,4.7-8.9l18.7-13c1.3-0.9,1.1-3-1.3-3h-15.1c-6.1,0-8.9-1.5-10.5-6.9
						c-0.4-1.5-1-3.1-2-4.4H319v-2.6H383.1z"/>
				</g>
				<path class="st4" d="M204.1,188.3v6.1c0,1.7-1.4,3.2-3.1,3.2h-3.2v136.1c0,18.3,0,36.6,0,54.9V452c0,16.8,0,33.6,0,50.4v9.3
					c-13.5,2.9-26.7,5.7-39.6,8.3V209c0-1.1,0.5-2.1,1.5-2.7l2.3-1.5l4.6-2.9l0.2-0.1c0.4-0.2,0.7-0.4,1-0.7l5.5-3.5h-19.9
					c-1.7,0-3.2-1.4-3.2-3.2v-6.1c0-1.7,1.4-3.2,3.2-3.2H201C202.7,185.2,204.1,186.6,204.1,188.3z"/>
				<path class="st4" d="M294.9,169.3v6.1c0,1.7-1.4,3.2-3.1,3.2h-3.2v145.9c0,0.4,0,0.9,0,1.3v0.5c0,14.5,0,28.9,0,43.3v63.3
					c0,16.8,0,33.6,0,50.4v9c-13.2,2.6-26.5,5.4-39.6,8.1V189.9c0-1.1,0.5-2.1,1.5-2.7l1.4-0.9l0,0l0.9-0.5l3.3-2.1l0.9-0.5l0.4-0.3
					l0.2-0.1c0.4-0.2,0.7-0.4,1-0.7l5.5-3.5h-19.9c-0.2,0-0.3,0-0.4,0c-1.6-0.2-2.7-1.6-2.7-3.1v-6.1c0-1.7,1.4-3.2,3.2-3.2h47.6
					C293.5,166.1,294.9,167.5,294.9,169.3z"/>
				<path class="st4" d="M496.2,187.3c-0.2,0.7-0.3,1.5-0.4,2.4v-0.8C495.8,188.3,496,187.7,496.2,187.3z"/>
				<path class="st4" d="M459.3,169.3v6.1c0,1.7-1.4,3.2-3.1,3.2H453v145.9c0,0.4,0,0.9,0,1.3v0.5c0,14.5,0,28.9,0,43.3v63.3
					c0,15.1,0,30.1,0,45.1c-13.6-0.8-26.9-1-39.6-0.6V189.9c0-1.1,0.5-2.1,1.5-2.7l1.4-0.9l0,0l0.3-0.2l0.6-0.3l3.3-2.1l0.9-0.5
					l0.4-0.3l0.2-0.1c0.4-0.2,0.7-0.4,1-0.7l5.5-3.5h-19.9c-0.2,0-0.3,0-0.4,0c-0.1,0-0.2,0-0.3-0.1c-1.4-0.3-2.4-1.6-2.4-3.1v-6.1
					c0-1.7,1.4-3.2,3.2-3.2h47.6C457.9,166.1,459.3,167.5,459.3,169.3z"/>
			</g>
			<g>
				<path class="st4" d="M671.5,566.8c-36.1-17.2-80.7-26-128-29.2c-13.2-0.9-26.5-1.4-39.9-1.5c-16.8-0.1-33.7,0.3-50.5,1.1
					c-13.5,0.7-26.9,1.7-40.1,2.9c-45.4,4.1-88.5,10.7-124.4,17.3c-14.6,2.7-28.1,5.4-39.9,7.9c-18.7,3.9-33.7,7.4-43.5,9.7
					c-2.3,0.5-4.7,1-7.3,1.5c-11.3,2.2-24.9,4.2-39.7,5.6c-56.2,5.2-130,1.2-158.2-39.4c20,13.1,48.7,16.2,82.9,13.7
					c23-1.6,48.4-5.8,75.3-11.1c12.9-2.6,26.2-5.4,39.7-8.3c16.7-3.6,33.7-7.4,50.8-11.1c13.2-2.9,26.6-5.6,39.9-8.2
					c13.2-2.5,26.3-4.9,39.3-6.9c15.5-2.4,30.9-4.4,45.9-5.7c7-0.6,13.9-1,20.8-1.3c6-0.4,12.1-0.8,18.4-0.9
					c12.8-0.3,26.2-0.1,40,0.6c16.5,0.9,33.5,2.5,50.5,4.9c5.9,0.8,11.9,1.7,17.8,2.8c7.4,1.3,14.8,2.7,22.1,4.2
					c20.9,4.4,41.1,9.9,59.7,16.3c8.7,3,17,6.2,24.8,9.7C645.1,548.9,660,557.4,671.5,566.8z"/>
				<path class="st5" d="M30.3,603.4c37.4,53.8,154.5,43.4,205.2,32.4c62-14.7,327.2-74.8,466.3-8.3
					c-55.3-45.1-187.3-69.8-276.8-63.1C281.9,570.3,101.1,649.8,30.3,603.4z"/>
			</g>
		</g>
	</g>
</g>
</svg>
