<?xml version="1.0" encoding="utf-8"?>
<!-- Generator: Adobe Illustrator 19.1.0, SVG Export Plug-In . SVG Version: 6.00 Build 0)  -->
<!DOCTYPE svg PUBLIC "-//W3C//DTD SVG 1.1//EN" "http://www.w3.org/Graphics/SVG/1.1/DTD/svg11.dtd">
<svg version="1.1" id="Layer_1" xmlns="http://www.w3.org/2000/svg" xmlns:xlink="http://www.w3.org/1999/xlink" x="0px" y="0px"
	 viewBox="0 0 30 30" style="enable-background:new 0 0 30 30;" xml:space="preserve">
<style type="text/css">
	.st0{fill:url(#SVGID_1_);}
	.st1{fill:#EBF1F5;}
	.st2{fill:#F35B5B;}
	.st3{fill:#A5B4C3;}
	.st4{fill:url(#SVGID_2_);}
	.st5{fill:url(#SVGID_3_);}
	.st6{fill:#147FD5;}
	.st7{fill:none;stroke:#A5B4C3;stroke-miterlimit:10;}
	.st8{fill:#0D63A8;}
	.st9{fill:#FFFFFF;}
	.st10{fill:#EEF1F5;}
	.st11{opacity:0.5;fill:#364350;}
</style>
<g>
	<circle class="st3" cx="15" cy="15" r="15"/>
	<path class="st9" d="M20,6.5C20,6.5,20,6.5,20,6.5v2.8c0,0.1,0,0.1-0.1,0.1h-1.8c-0.3,0-0.5,0-0.8,0.2C17,9.6,16.8,9.8,16.7,10
		c-0.2,0.3-0.2,0.6-0.2,0.9c0,0.8,0,1.5,0,2.3c0,0.1,0,0.1,0.1,0.1h1.9c0.4,0,0.8,0,1.2,0c0.1,0,0.1,0,0.1,0.1c0,0.1,0,0.1,0,0.2
		c0,0.2,0,0.4-0.1,0.6c0,0.4-0.1,0.7-0.1,1.1c0,0.2-0.1,0.4-0.1,0.6c0,0.2-0.1,0.5-0.1,0.7c0,0.1,0,0.1-0.2,0.1h-2.7
		c-0.2,0-0.2,0-0.2,0.2v8.5c0,0,0,0,0,0H13v-8.6c0-0.2,0-0.2-0.2-0.2h-2.7c-0.1,0-0.1,0-0.1-0.1v-3.1c0-0.2,0-0.2,0.1-0.2h2.7
		c0.1,0,0.2,0,0.2-0.2v-2.4c0-0.2,0-0.4,0-0.6C13,9.8,13.1,9.4,13.2,9c0.1-0.3,0.2-0.6,0.4-0.9c0.3-0.5,0.7-0.9,1.2-1.2
		c0.2-0.1,0.4-0.2,0.6-0.3c0.2-0.1,0.4-0.1,0.6-0.2c0.3-0.1,0.6-0.1,0.9-0.1c0.4,0,0.8,0,1.2,0c0.2,0,0.4,0,0.6,0
		c0.4,0,0.7,0.1,1.1,0.1C19.9,6.3,20,6.4,20,6.5z"/>
</g>
</svg>
