<?xml version="1.0" encoding="utf-8"?>
<!-- Generator: Adobe Illustrator 19.1.0, SVG Export Plug-In . SVG Version: 6.00 Build 0)  -->
<!DOCTYPE svg PUBLIC "-//W3C//DTD SVG 1.1//EN" "http://www.w3.org/Graphics/SVG/1.1/DTD/svg11.dtd">
<svg version="1.1" id="Layer_1" xmlns="http://www.w3.org/2000/svg" xmlns:xlink="http://www.w3.org/1999/xlink" x="0px" y="0px"
	 viewBox="0 0 30 30" style="enable-background:new 0 0 30 30;" xml:space="preserve">
<style type="text/css">
	.st0{fill:url(#SVGID_1_);}
	.st1{fill:#EBF1F5;}
	.st2{fill:#F35B5B;}
	.st3{fill:#A5B4C3;}
	.st4{fill:url(#SVGID_2_);}
	.st5{fill:url(#SVGID_3_);}
	.st6{fill:#147FD5;}
	.st7{fill:none;stroke:#A5B4C3;stroke-miterlimit:10;}
	.st8{fill:#0D63A8;}
	.st9{fill:#FFFFFF;}
	.st10{fill:#EEF1F5;}
	.st11{opacity:0.5;fill:#364350;}
</style>
<g>
	<circle class="st3" cx="15" cy="15" r="15"/>
	<g>
		<path class="st9" d="M19.3,7.4C19.3,7.4,19.3,7.4,19.3,7.4c-0.2,0-0.5,0-0.7,0c0,0,0,0,0,0C18.9,7.4,19.1,7.4,19.3,7.4z"/>
		<path class="st9" d="M18.6,7.4c0.2,0,0.5,0,0.7,0c0.5,0,1.1,0.2,1.6,0.4C21.3,8,21.7,8.3,22,8.5c0.1,0,0.1,0.1,0.2,0.1
			c0.6-0.1,1.3-0.3,1.8-0.6c0.2-0.1,0.4-0.2,0.7-0.3c-0.3,0.9-1,1.5-1.7,2.1c0.4,0,0.8-0.1,1.2-0.2c0.4-0.1,0.7-0.2,1.1-0.3
			c-0.1,0.1-0.2,0.2-0.3,0.3c-0.5,0.6-1.1,1.1-1.7,1.5c-0.1,0-0.1,0.1-0.1,0.2c0,1.7-0.4,3.4-1.2,4.9c-0.4,0.9-1,1.7-1.7,2.5
			c-1.1,1.2-2.3,2.1-3.8,2.7c-1,0.5-2.1,0.8-3.2,1c-0.8,0.1-1.5,0.2-2.3,0.2c-1.2,0-2.4-0.2-3.6-0.6c-0.9-0.3-1.8-0.6-2.6-1.1
			c0,0-0.1,0-0.1-0.1c0.1,0,0.3,0,0.4,0c1.5,0.1,3-0.1,4.4-0.7c0.5-0.2,1-0.5,1.4-0.8c-0.2,0-0.3,0-0.5-0.1
			c-0.7-0.1-1.3-0.3-1.9-0.7c-0.7-0.5-1.1-1.1-1.4-1.9c0,0,0,0,0,0c0.6,0.2,1.2,0.2,1.8-0.1c-0.2-0.1-0.4-0.1-0.5-0.1
			C7.2,16,6.3,15.3,5.9,14c-0.1-0.4-0.2-0.8-0.2-1.2c0-0.1,0-0.1,0.1,0c0.5,0.2,1,0.3,1.6,0.4c0.1,0,0.2,0,0.3,0c0,0,0,0-0.1-0.1
			c-0.5-0.4-1-0.8-1.3-1.3c-0.4-0.6-0.6-1.3-0.5-2c0-0.6,0.2-1.2,0.5-1.7c0-0.1,0.1,0,0.1,0c0.3,0.3,0.6,0.6,1,0.9
			c0.9,0.8,2,1.5,3.1,2c1,0.4,2.1,0.7,3.3,0.9c0.4,0.1,0.8,0.1,1.2,0.2c0.1,0,0.1,0,0.1-0.1c-0.1-0.3-0.2-0.7-0.1-1
			c0-0.7,0.3-1.4,0.7-2c0.7-0.9,1.6-1.4,2.8-1.6C18.4,7.5,18.5,7.5,18.6,7.4z"/>
	</g>
</g>
</svg>
