<?xml version="1.0" encoding="utf-8"?>
<!-- Generator: Adobe Illustrator 19.1.0, SVG Export Plug-In . SVG Version: 6.00 Build 0)  -->
<!DOCTYPE svg PUBLIC "-//W3C//DTD SVG 1.1//EN" "http://www.w3.org/Graphics/SVG/1.1/DTD/svg11.dtd">
<svg version="1.1" xmlns="http://www.w3.org/2000/svg" xmlns:xlink="http://www.w3.org/1999/xlink" x="0px" y="0px"
	 viewBox="0 0 24 24" style="enable-background:new 0 0 24 24;" xml:space="preserve">
<style type="text/css">
	.st0{fill:url(#SVGID_11_);}
	.st1{fill:url(#SVGID_12_);}
	.st2{fill:url(#SVGID_13_);}
	.st3{fill:url(#SVGID_14_);}
	.st4{fill:url(#SVGID_15_);}
	.st5{fill:url(#SVGID_16_);}
	.st6{fill:url(#SVGID_17_);}
	.st7{fill:url(#SVGID_18_);}
	.st8{fill:url(#SVGID_19_);}
	.st9{fill:url(#SVGID_20_);}
	.st10{fill:url(#SVGID_21_);}
	.st11{fill:#147FD5;}
	.st12{fill:#F35B5B;}
	.st13{fill:#EBF1F5;}
	.st14{fill:#A5B4C3;}
	.st15{fill:none;stroke:#A5B4C3;stroke-miterlimit:10;}
	.st16{fill:#0D63A8;}
	.st17{fill:#EA3E3E;}
	.st18{fill:#4ACA66;}
	.st19{fill:#364350;}
	.st20{fill:none;stroke:#EBF1F5;stroke-miterlimit:10;}
	.st21{fill:none;stroke:#A5B4C3;stroke-width:23;stroke-miterlimit:10;}
	.st22{fill:none;stroke:#A5B4C3;stroke-width:22.9997;stroke-miterlimit:10;}
	.st23{fill:none;stroke:#A5B4C3;stroke-width:23.0007;stroke-miterlimit:10;}
	.st24{fill:url(#SVGID_26_);}
	.st25{fill:url(#SVGID_27_);}
	.st26{fill:#FFFFFF;}
	.st27{fill:none;stroke:#0D63A8;stroke-miterlimit:10;}
	.st28{fill:url(#SVGID_28_);}
	.st29{fill:url(#SVGID_29_);}
	.st30{fill:url(#SVGID_30_);}
	.st31{fill:url(#SVGID_31_);}
	.st32{opacity:0.4;fill:#364350;}
	.st33{fill:url(#SVGID_32_);}
	.st34{fill:url(#SVGID_33_);}
	.st35{opacity:0.7;}
	.st36{fill:url(#SVGID_34_);}
	.st37{fill:url(#SVGID_35_);}
	.st38{opacity:0.95;fill:#5D5D5D;}
	.st39{fill:#5D5D5D;}
	.st40{opacity:0.5;fill:#364350;}
	.st41{fill:none;stroke:#EEF1F5;stroke-miterlimit:10;}
</style>
<g id="Linked_Images">
</g>
<g id="Main_Layer">
	<g>
		<g>
			<circle class="st26" cx="12" cy="12" r="12"/>
			<g>
				<g>
					<path class="st11" d="M15.3,6.1C15.3,6.2,15.3,6.2,15.3,6.1c-0.2,0-0.4,0-0.5,0c0,0,0,0,0,0C15,6.1,15.2,6.1,15.3,6.1z"/>
					<path class="st11" d="M14.8,6.2c0.2,0,0.4,0,0.5,0c0.4,0,0.8,0.1,1.2,0.3c0.3,0.1,0.6,0.3,0.9,0.5c0,0,0.1,0,0.2,0
						c0.5-0.1,1-0.2,1.4-0.4c0.2-0.1,0.3-0.2,0.5-0.2c-0.2,0.7-0.7,1.2-1.3,1.6c0.3,0,0.6-0.1,0.9-0.1c0.3-0.1,0.6-0.2,0.9-0.3
						c-0.1,0.1-0.1,0.2-0.2,0.2c-0.4,0.4-0.8,0.8-1.3,1.2c0,0-0.1,0.1-0.1,0.1c0,1.3-0.3,2.6-0.9,3.8c-0.3,0.7-0.8,1.3-1.3,1.9
						c-0.8,0.9-1.8,1.6-2.9,2.1c-0.8,0.4-1.6,0.6-2.5,0.8c-0.6,0.1-1.2,0.1-1.8,0.1c-0.9,0-1.9-0.2-2.7-0.4c-0.7-0.2-1.4-0.5-2-0.8
						c0,0-0.1,0-0.1-0.1c0.1,0,0.2,0,0.3,0c1.2,0,2.3-0.1,3.4-0.6c0.4-0.2,0.8-0.4,1.1-0.6c-0.1,0-0.3,0-0.4-0.1
						C8,15.2,7.5,15,7,14.7c-0.5-0.4-0.9-0.9-1.1-1.4c0,0,0,0,0,0c0.5,0.1,0.9,0.1,1.4-0.1c-0.1,0-0.3-0.1-0.4-0.1
						C6,12.8,5.3,12.2,5,11.3c-0.1-0.3-0.2-0.6-0.2-0.9c0,0,0,0,0.1,0c0.4,0.2,0.8,0.3,1.2,0.3c0.1,0,0.1,0,0.2,0c0,0,0,0,0-0.1
						c-0.4-0.3-0.7-0.6-1-1C4.9,9.1,4.8,8.6,4.8,8c0-0.5,0.2-0.9,0.4-1.3c0-0.1,0.1,0,0.1,0C5.5,7,5.7,7.2,6,7.5
						C6.7,8.1,7.5,8.6,8.4,9c0.8,0.3,1.7,0.6,2.5,0.7c0.3,0.1,0.6,0.1,1,0.1c0.1,0,0.1,0,0-0.1c-0.1-0.3-0.1-0.5-0.1-0.8
						c0-0.6,0.2-1.1,0.6-1.5c0.5-0.7,1.3-1.1,2.1-1.3C14.6,6.2,14.7,6.2,14.8,6.2z"/>
				</g>
			</g>
		</g>
	</g>
</g>
</svg>
